<svg xmlns="http://www.w3.org/2000/svg" xmlns:xlink="http://www.w3.org/1999/xlink" width="24" height="24" version="1.1" viewBox="0 0 24 24"><title>Snooze@1x</title><g id="Snooze" fill="none" fill-rule="evenodd" stroke="none" stroke-width="1"><rect width="24" height="24" x="0" y="0" fill="#FFF"/><path id="Path" stroke="#979797" stroke-linecap="round" stroke-width="1.5" d="M22,12 C22,17.5228475 17.5228475,22 12,22 C6.4771525,22 2,17.5228475 2,12 C2,6.4771525 6.4771525,2 12,2"/><polyline id="Path" stroke="#979797" stroke-linecap="round" stroke-linejoin="round" stroke-width="1.5" points="10.005 14.013 12 12 12 8.043" opacity=".9"/><g id="z" fill="#979797" fill-rule="nonzero" transform="translate(15.1572, 1.7471)"><path id="Path" d="M5.87890625,1.97558594 L2.4609375,5.796875 L6.11816406,5.796875 C6.41438802,5.796875 6.63769531,5.8663737 6.78808594,6.00537109 C6.93847656,6.14436849 7.01367188,6.32324219 7.01367188,6.54199219 C7.01367188,6.7516276 6.93961589,6.92252604 6.79150391,7.0546875 C6.64339193,7.18684896 6.41894531,7.25292969 6.11816406,7.25292969 L1.05957031,7.25292969 C0.704101563,7.25292969 0.438639323,7.17545573 0.263183594,7.02050781 C0.0877278646,6.8655599 0,6.65364583 0,6.38476562 C0,6.22526042 0.0615234375,6.06461589 0.184570313,5.90283203 C0.307617188,5.74104818 0.562825521,5.4436849 0.950195313,5.01074219 C1.36035156,4.55501302 1.73291016,4.14257812 2.06787109,3.7734375 C2.40283203,3.40429688 2.71386719,3.05908203 3.00097656,2.73779297 C3.28808594,2.41650391 3.52620443,2.14420573 3.71533203,1.92089844 C3.90445964,1.69759115 4.05598958,1.5061849 4.16992188,1.34667969 L1.39453125,1.34667969 C1.01171875,1.34667969 0.722330729,1.3125 0.526367188,1.24414062 C0.330403646,1.17578125 0.232421875,0.995768229 0.232421875,0.704101562 C0.232421875,0.489908854 0.306477865,0.319010417 0.454589844,0.19140625 C0.602701823,0.0638020833 0.813476563,0 1.08691406,0 L5.37304688,0 C5.76953125,0 6.07373047,0.0581054688 6.28564453,0.174316406 C6.49755859,0.290527344 6.60351563,0.499023437 6.60351563,0.799804688 C6.60351563,0.900065104 6.58300781,1.00374349 6.54199219,1.11083984 C6.50097656,1.2179362 6.45540365,1.30566406 6.40527344,1.37402344 C6.35514323,1.44238281 6.28678385,1.52555339 6.20019531,1.62353516 C6.11360677,1.72151693 6.00651042,1.83886719 5.87890625,1.97558594 Z"/></g></g></svg>