<svg xmlns="http://www.w3.org/2000/svg" width="24" height="24" fill="none" viewBox="0 0 24 24"><path fill="#000" fill-rule="evenodd" d="M7 2C6.44772 2 6 2.44772 6 3V5C3.79086 5 2 6.79086 2 9V18C2 20.2091 3.79086 22 6 22H18C20.2091 22 22 20.2091 22 18V9C22 6.79086 20.2091 5 18 5V3C18 2.44772 17.5523 2 17 2C16.4477 2 16 2.44772 16 3V5H8V3C8 2.44772 7.55228 2 7 2ZM6 7H18C19.1046 7 20 7.89543 20 9V18C20 19.1046 19.1046 20 18 20H6C4.89543 20 4 19.1046 4 18V9C4 7.89543 4.89543 7 6 7ZM14.4247 9.55887C14.1811 9.22388 13.712 9.14982 13.3771 9.39345C13.0421 9.63708 12.968 10.1061 13.2116 10.4411L14.5272 12.25H8C7.58579 12.25 7.25 12.5858 7.25 13C7.25 13.4142 7.58579 13.75 8 13.75H14.5272L13.2116 15.5589C12.968 15.8939 13.0421 16.3629 13.3771 16.6066C13.712 16.8502 14.1811 16.7761 14.4247 16.4411L16.6066 13.4411C16.7978 13.1781 16.7978 12.8219 16.6066 12.5589L14.4247 9.55887Z" clip-rule="evenodd"/></svg>