<svg xmlns="http://www.w3.org/2000/svg" width="24" height="24" fill="none" viewBox="0 0 24 24"><g clip-path="url(#clip0_82_755)"><path stroke="#000" stroke-linecap="round" stroke-linejoin="round" stroke-width="2" d="M1.99999 21.8439L3.48587 16.2986M3.48587 16.2986L6.24536 6L20.6603 12.4097C10.9056 18.7112 4.44108 12.7337 3.48587 16.2986Z"/><path fill="#000" fill-rule="evenodd" d="M2.15596 1.01224C1.86708 0.966632 1.57271 1.04977 1.35037 1.23976C1.12803 1.42975 1 1.70755 1 2.00001V15V22C1 22.5523 1.44772 23 2 23C2.55228 23 3 22.5523 3 22V15V12.1777V6.00001V3.17029L18.9396 5.68707C18.0374 6.55021 17.1407 7.27736 16.2578 7.89235L18.361 8.82714C19.4793 7.95926 20.6114 6.91999 21.7415 5.67092C21.9879 5.39866 22.0652 5.01332 21.943 4.66711C21.8207 4.3209 21.5186 4.06951 21.156 4.01224L2.15596 1.01224Z" clip-rule="evenodd"/></g><defs><clipPath id="clip0_82_755"><rect width="24" height="24" fill="#fff"/></clipPath></defs></svg>