<svg xmlns="http://www.w3.org/2000/svg" width="24" height="24" fill="none" viewBox="0 0 24 24"><path stroke="#000" stroke-linecap="round" stroke-width="2" d="M11.9999 9.3119V12.4498C11.9999 12.6535 12.0808 12.8488 12.2248 12.9928L13.9199 14.6879M2.3999 7.0079V6.2399C2.3999 4.11913 4.11913 2.3999 6.2399 2.3999H7.0079M16.9919 2.3999L17.7599 2.3999C19.8807 2.3999 21.5999 4.11913 21.5999 6.2399V7.0079M5.8559 18.9119L3.1679 21.5999M20.8319 21.5999L18.1439 18.9119M20.4479 12.7679C20.4479 17.4336 16.6656 21.2159 11.9999 21.2159C7.3342 21.2159 3.5519 17.4336 3.5519 12.7679C3.5519 8.1022 7.3342 4.3199 11.9999 4.3199C16.6656 4.3199 20.4479 8.1022 20.4479 12.7679Z"/></svg>