<svg width="24" height="24" viewBox="0 0 24 24" fill="none" xmlns="http://www.w3.org/2000/svg">
<path fill-rule="evenodd" clip-rule="evenodd" d="M7.25 0C7.94036 0 8.5 0.559644 8.5 1.25V3H15V1.25C15 0.559644 15.5596 0 16.25 0C16.9404 0 17.5 0.559644 17.5 1.25V3.02054C20.5798 3.27461 23 5.85467 23 9V17C23 20.3137 20.3137 23 17 23H7C3.68629 23 1 20.3137 1 17V9C1 6.027 3.16229 3.55904 6 3.08296V1.25C6 0.559644 6.55964 0 7.25 0ZM17 5.5H7C5.067 5.5 3.5 7.067 3.5 9V17C3.5 18.933 5.067 20.5 7 20.5H17C18.933 20.5 20.5 18.933 20.5 17V9C20.5 7.067 18.933 5.5 17 5.5ZM19 9.25C19 9.94036 18.4404 10.5 17.75 10.5H6.25C5.55964 10.5 5 9.94036 5 9.25C5 8.55964 5.55964 8 6.25 8H17.75C18.4404 8 19 8.55964 19 9.25ZM17 18C18.1046 18 19 17.1046 19 16C19 14.8954 18.1046 14 17 14C15.8954 14 15 14.8954 15 16C15 17.1046 15.8954 18 17 18Z" fill="black"/>
</svg>
