<svg xmlns="http://www.w3.org/2000/svg" width="24" height="24" fill="none" viewBox="0 0 24 24"><path fill="#000" fill-rule="evenodd" d="M3 12C3 7.02944 7.02944 3 12 3C16.9706 3 21 7.02944 21 12C21 16.9706 16.9706 21 12 21C7.02944 21 3 16.9706 3 12ZM12 1C5.92487 1 1 5.92487 1 12C1 18.0751 5.92487 23 12 23C18.0751 23 23 18.0751 23 12C23 5.92487 18.0751 1 12 1ZM17.3091 8.70511C17.6985 8.31349 17.6967 7.68032 17.3051 7.2909C16.9135 6.90148 16.2803 6.90327 15.8909 7.29489L9.44048 13.7818L7.7091 12.0406C7.31968 11.649 6.68651 11.6472 6.29489 12.0366C5.90327 12.426 5.90148 13.0592 6.2909 13.4508L8.73139 15.9051C8.91908 16.0939 9.17429 16.2 9.44048 16.2C9.70668 16.2 9.96188 16.0939 10.1496 15.9051L17.3091 8.70511Z" clip-rule="evenodd"/></svg>