<svg xmlns="http://www.w3.org/2000/svg" width="24" height="24" fill="none" viewBox="0 0 24 24"><path fill="#000" fill-rule="evenodd" d="M6 1C3.23858 1 1 3.23858 1 6V18C1 20.7614 3.23858 23 6 23H18C20.7614 23 23 20.7614 23 18V6C23 3.23858 20.7614 1 18 1H6ZM3 6C3 4.34315 4.34315 3 6 3H18C19.6569 3 21 4.34315 21 6V18C21 19.6569 19.6569 21 18 21H6C4.34315 21 3 19.6569 3 18V6ZM17 8C17.5523 8 18 7.55228 18 7C18 6.44772 17.5523 6 17 6H7C6.44771 6 6 6.44772 6 7C6 7.55228 6.44772 8 7 8H17ZM14 11C14 11.5523 13.5523 12 13 12H7C6.44772 12 6 11.5523 6 11C6 10.4477 6.44772 10 7 10H13C13.5523 10 14 10.4477 14 11ZM11 16C11.5523 16 12 15.5523 12 15C12 14.4477 11.5523 14 11 14H7C6.44772 14 6 14.4477 6 15C6 15.5523 6.44772 16 7 16H11Z" clip-rule="evenodd"/></svg>