<svg xmlns="http://www.w3.org/2000/svg" width="24" height="24" fill="none" viewBox="0 0 24 24"><path fill="#000" fill-rule="evenodd" d="M4 1C2.34315 1 1 2.34315 1 4V20C1 21.6569 2.34315 23 4 23H6C7.65685 23 9 21.6569 9 20V4C9 2.34315 7.65685 1 6 1H4ZM3 4C3 3.44772 3.44772 3 4 3H6C6.55228 3 7 3.44772 7 4V20C7 20.5523 6.55228 21 6 21H4C3.44772 21 3 20.5523 3 20V4ZM13 1C11.3431 1 10 2.34315 10 4V20C10 21.6569 11.3431 23 13 23H20C21.6569 23 23 21.6569 23 20V4C23 2.34315 21.6569 1 20 1H13ZM12 4C12 3.44772 12.4477 3 13 3H20C20.5523 3 21 3.44772 21 4V20C21 20.5523 20.5523 21 20 21H13C12.4477 21 12 20.5523 12 20V4Z" clip-rule="evenodd"/></svg>