<svg xmlns="http://www.w3.org/2000/svg" width="24" height="24" fill="none" viewBox="0 0 24 24"><path fill="#000" fill-rule="evenodd" d="M20 5C20 5.55228 19.5523 6 19 6H14C13.4477 6 13 5.55228 13 5V5C13 4.44772 13.4477 4 14 4H19C19.5523 4 20 4.44772 20 5V5Z" clip-rule="evenodd"/><path fill="#000" fill-rule="evenodd" d="M4 1C2.34315 1 1 2.34315 1 4V20C1 21.6569 2.34315 23 4 23H6C7.65685 23 9 21.6569 9 20V4C9 2.34315 7.65685 1 6 1H4ZM3 4C3 3.44772 3.44772 3 4 3H6C6.55228 3 7 3.44772 7 4V20C7 20.5523 6.55228 21 6 21H4C3.44772 21 3 20.5523 3 20V4ZM13 1C11.3431 1 10 2.34315 10 4V20C10 21.6569 11.3431 23 13 23H20C21.6569 23 23 21.6569 23 20V4C23 2.34315 21.6569 1 20 1H13ZM12 4C12 3.44772 12.4477 3 13 3H20C20.5523 3 21 3.44772 21 4V20C21 20.5523 20.5523 21 20 21H13C12.4477 21 12 20.5523 12 20V4ZM20 9C20 9.55229 19.5523 10 19 10H14C13.4477 10 13 9.55229 13 9C13 8.44772 13.4477 8 14 8H19C19.5523 8 20 8.44772 20 9ZM19 14C19.5523 14 20 13.5523 20 13C20 12.4477 19.5523 12 19 12H14C13.4477 12 13 12.4477 13 13C13 13.5523 13.4477 14 14 14H19Z" clip-rule="evenodd"/></svg>