<svg width="100" height="100" viewBox="0 0 100 100" fill="none" xmlns="http://www.w3.org/2000/svg">
<g clip-path="url(#clip0_395_134)">
<rect width="100" height="100" rx="32" fill="white"/>
<rect width="100" height="100" fill="#9C82F7"/>
<path d="M0 38.8565C0 29.3273 8.27742 21.9105 17.7494 22.9524L85.7495 30.4324C93.86 31.3246 100 38.177 100 46.3365V84C100 92.8366 92.8366 100 84 100H16C7.16345 100 0 92.8366 0 84V38.8565Z" fill="#FBE6A2"/>
<path d="M0 81.1041C0 72.4218 5.91659 64.8568 14.3431 62.7648L70.2174 48.8937C85.3553 45.1356 100 56.5892 100 72.1867V76C100 89.2548 89.2548 100 76 100H18.8959C8.46 100 0 91.54 0 81.1041V81.1041Z" fill="#15162E"/>
<path d="M63.489 77.4816L74.3282 60.4486C74.5967 60.0266 75.25 60.2168 75.25 60.717V72.9C75.25 72.9552 75.2948 73 75.35 73H83.0397C83.4442 73 83.6813 73.4553 83.4493 73.7867L72.6596 89.2005C72.3793 89.601 71.75 89.4027 71.75 88.9138V78.35C71.75 78.2948 71.7052 78.25 71.65 78.25H63.9108C63.5163 78.25 63.2772 77.8144 63.489 77.4816Z" stroke="white" stroke-width="4"/>
</g>
<defs>
<clipPath id="clip0_395_134">
<rect width="100" height="100" rx="32" fill="white"/>
</clipPath>
</defs>
</svg>
