<svg xmlns="http://www.w3.org/2000/svg" width="24" height="24" fill="none" viewBox="0 0 24 24"><path fill="#000" d="M12 11.9999V10.9999C11.4477 10.9999 11 11.4476 11 11.9999H12ZM12.085 11.9999H13.085C13.085 11.4476 12.6373 10.9999 12.085 10.9999V11.9999ZM12.085 12.0768V13.0768C12.6373 13.0768 13.085 12.6291 13.085 12.0768H12.085ZM12 12.0768H11C11 12.6291 11.4477 13.0768 12 13.0768V12.0768ZM20.6 11.9999C20.6 16.7496 16.7497 20.5999 12 20.5999V22.5999C17.8542 22.5999 22.6 17.8541 22.6 11.9999H20.6ZM12 20.5999C7.25038 20.5999 3.40002 16.7496 3.40002 11.9999H1.40002C1.40002 17.8541 6.14581 22.5999 12 22.5999V20.5999ZM3.40002 11.9999C3.40002 7.25025 7.25038 3.3999 12 3.3999V1.3999C6.14581 1.3999 1.40002 6.14568 1.40002 11.9999H3.40002ZM12 3.3999C16.7497 3.3999 20.6 7.25025 20.6 11.9999H22.6C22.6 6.14568 17.8542 1.3999 12 1.3999V3.3999ZM15.8 11.9999C15.8 14.0986 14.0987 15.7999 12 15.7999V17.7999C15.2033 17.7999 17.8 15.2032 17.8 11.9999H15.8ZM12 15.7999C9.90134 15.7999 8.20002 14.0986 8.20002 11.9999H6.20002C6.20002 15.2032 8.79677 17.7999 12 17.7999V15.7999ZM8.20002 11.9999C8.20002 9.90122 9.90134 8.1999 12 8.1999V6.1999C8.79677 6.1999 6.20002 8.79665 6.20002 11.9999H8.20002ZM12 8.1999C14.0987 8.1999 15.8 9.90122 15.8 11.9999H17.8C17.8 8.79665 15.2033 6.1999 12 6.1999V8.1999ZM12 12.9999H12.085V10.9999H12V12.9999ZM11.085 11.9999V12.0768H13.085V11.9999H11.085ZM12.085 11.0768H12V13.0768H12.085V11.0768ZM13 12.0768V11.9999H11V12.0768H13Z"/></svg>