<svg width="24" height="24" viewBox="0 0 24 24" fill="none" xmlns="http://www.w3.org/2000/svg">
<path d="M19.8027 2.80609C19.4121 2.41557 18.779 2.41557 18.3884 2.80609C17.9979 3.19661 17.9979 3.82978 18.3884 4.2203L19.8027 2.80609ZM20.8928 6.72465C21.2833 7.11518 21.9165 7.11518 22.307 6.72465C22.6975 6.33413 22.6975 5.70096 22.307 5.31044L20.8928 6.72465ZM12.5825 9.68711C12.5825 9.13482 12.1348 8.68711 11.5825 8.68711C11.0302 8.68711 10.5825 9.13482 10.5825 9.68711H12.5825ZM10.5825 13.3045C10.5825 13.8568 11.0302 14.3045 11.5825 14.3045C12.1348 14.3045 12.5825 13.8568 12.5825 13.3045H10.5825ZM8.7999 0.287109C8.24762 0.287109 7.7999 0.734825 7.7999 1.28711C7.7999 1.83939 8.24762 2.28711 8.7999 2.28711V0.287109ZM14.0869 2.28711C14.6391 2.28711 15.0869 1.83939 15.0869 1.28711C15.0869 0.734825 14.6391 0.287109 14.0869 0.287109V2.28711ZM17.5537 6.14522C17.1631 6.53574 17.1631 7.16891 17.5537 7.55943C17.9442 7.94996 18.5774 7.94996 18.9679 7.55943L17.5537 6.14522ZM20.3477 4.76537L21.0548 4.05826L20.3477 4.76537ZM10.5825 9.68711V13.3045H12.5825V9.68711H10.5825ZM8.7999 2.28711H14.0869V0.287109H8.7999V2.28711ZM18.9679 7.55943L21.0548 5.47248L19.6406 4.05826L17.5537 6.14522L18.9679 7.55943ZM19.7651 13.5306C19.7651 18.0497 16.1016 21.7132 11.5825 21.7132V23.7132C17.2062 23.7132 21.7651 19.1543 21.7651 13.5306H19.7651ZM11.5825 21.7132C7.06338 21.7132 3.3999 18.0497 3.3999 13.5306H1.3999C1.3999 19.1543 5.95881 23.7132 11.5825 23.7132V21.7132ZM3.3999 13.5306C3.3999 9.01146 7.06338 5.34798 11.5825 5.34798V3.34798C5.95881 3.34798 1.3999 7.90689 1.3999 13.5306H3.3999ZM11.5825 5.34798C16.1016 5.34798 19.7651 9.01146 19.7651 13.5306H21.7651C21.7651 7.90689 17.2062 3.34798 11.5825 3.34798V5.34798ZM18.3884 4.2203L19.6406 5.47248L21.0548 4.05826L19.8027 2.80609L18.3884 4.2203ZM19.6406 5.47248L20.8928 6.72465L22.307 5.31044L21.0548 4.05826L19.6406 5.47248Z" fill="black"/>
</svg>
