<svg width="24" height="24" viewBox="0 0 24 24" fill="none" xmlns="http://www.w3.org/2000/svg">
<path fill-rule="evenodd" clip-rule="evenodd" d="M2.14409 5.57997C2.05349 5.35877 2 5.11603 2 4.85129C2 3.97301 2.58876 3.33683 3.16785 2.9259C3.77284 2.4966 4.58341 2.15094 5.49502 1.87733C7.33096 1.3263 9.80733 1 12.5 1C15.1927 1 17.669 1.3263 19.505 1.87733C20.4166 2.15094 21.2272 2.4966 21.8321 2.9259C22.4112 3.33683 23 3.97301 23 4.85129C23 5.11603 22.9465 5.35877 22.8559 5.57997L19.8988 18.1533C19.3676 20.4122 17.3521 22.0086 15.0316 22.0086H9.96839C7.64794 22.0086 5.63243 20.4122 5.10119 18.1533L2.14409 5.57997ZM4.66018 7.54231L7.04807 17.6955C7.36681 19.0507 8.57612 20.0086 9.96839 20.0086H15.0316C16.4239 20.0086 17.6332 19.0507 17.9519 17.6955L20.3398 7.54231C20.074 7.64415 19.7946 7.73833 19.505 7.82525C17.669 8.37628 15.1927 8.70259 12.5 8.70259C9.80733 8.70259 7.33096 8.37628 5.49502 7.82525C5.20542 7.73833 4.92603 7.64415 4.66018 7.54231ZM20.9768 4.83404L20.9647 4.88533C20.9237 4.93992 20.8405 5.02797 20.6747 5.14561C20.3183 5.39856 19.7376 5.66729 18.93 5.90967C17.3277 6.39061 15.054 6.70259 12.5 6.70259C9.94596 6.70259 7.67234 6.39061 6.06995 5.90967C5.2624 5.66729 4.68173 5.39856 4.32526 5.14561C4.15949 5.02798 4.07632 4.93993 4.03529 4.88534L4.02322 4.83404C4.05902 4.78166 4.14126 4.68755 4.32526 4.55698C4.68173 4.30403 5.2624 4.03529 6.06995 3.79291C7.67234 3.31198 9.94596 3 12.5 3C15.054 3 17.3277 3.31198 18.93 3.79291C19.7376 4.03529 20.3183 4.30403 20.6747 4.55698C20.8587 4.68755 20.941 4.78167 20.9768 4.83404Z" fill="black"/>
</svg>
